<?xml version="1.0" standalone="no"?>
<!DOCTYPE svg PUBLIC "-//W3C//DTD SVG 20010904//EN"
 "http://www.w3.org/TR/2001/REC-SVG-20010904/DTD/svg10.dtd">
<svg version="1.0" xmlns="http://www.w3.org/2000/svg"
 width="260.000000pt" height="260.000000pt" viewBox="0 0 260.000000 260.000000"
 preserveAspectRatio="xMidYMid meet">
<metadata>
Created by potrace 1.14, written by Peter Selinger 2001-2017
</metadata>
<g transform="translate(0.000000,260.000000) scale(0.100000,-0.100000)"
fill="#000000" stroke="none">
<path d="M0 1300 l0 -1300 1300 0 1300 0 0 1300 0 1300 -1300 0 -1300 0 0
-1300z m728 0 l-160 -480 -74 0 c-41 0 -74 1 -74 3 0 2 307 924 315 945 3 8
28 12 79 12 l74 0 -160 -480z m645 7 c86 -260 157 -476 157 -480 0 -4 -33 -7
-74 -7 l-74 0 -160 480 -160 480 76 0 77 0 158 -473z m325 -7 l161 -481 -77 3
-77 3 -157 465 c-86 256 -157 471 -157 478 -1 8 20 12 73 12 l74 0 160 -480z
m323 5 c87 -258 159 -473 159 -477 0 -5 -33 -8 -74 -8 l-73 0 -158 467 c-86
257 -160 473 -162 481 -4 10 11 12 72 10 l77 -3 159 -470z m-930 -122 c61
-186 114 -344 117 -350 3 -10 -47 -13 -231 -13 l-236 0 26 75 25 75 108 0 109
0 -55 162 -54 162 37 113 c21 62 38 113 39 113 1 0 53 -152 115 -337z"/>
</g>
</svg>
