<svg viewBox="0 0 103 69" fill="none" xmlns="http://www.w3.org/2000/svg">
<path fill-rule="evenodd" clip-rule="evenodd" d="M29.8707 0H21.352L4.14258 51.4562H12.6613L29.8707 0ZM24.2785 42.8491L21.417 51.4595H41.0611V51.4581H47.0918L34.202 13.0464L30.0256 25.7042L35.7159 42.8491H24.2785ZM38.5864 0H47.105L64.3145 51.4562H55.7958L38.5864 0ZM64.3247 0H55.8061L73.0155 51.4562H81.5342L64.3247 0ZM73.0287 0H81.5474L98.7568 51.4562H90.2382L73.0287 0Z" fill="#F8F8F8"/>
<path d="M2.09372 67.516H0.702754L0.266562 68.6501H0L1.28434 65.3109H1.51698L2.80617 68.6501H2.52992L2.09372 67.516ZM2.00648 67.2931L1.39582 65.6986L0.785146 67.2931H2.00648Z" fill="#F8F8F8"/>
<path d="M9.67041 67.0992H9.02582V68.6501H8.75441V65.3545H9.77219C9.99837 65.3545 10.1906 65.3932 10.3489 65.4708C10.5073 65.5451 10.6268 65.6485 10.7076 65.781C10.7884 65.9102 10.8287 66.0572 10.8287 66.222C10.8287 66.4579 10.7544 66.6517 10.6058 66.8036C10.4572 66.9555 10.2423 67.0459 9.96121 67.075L11.1098 68.6501H10.7997L9.67041 67.0992ZM9.02582 66.8763H9.77219C10.0274 66.8763 10.2213 66.823 10.3538 66.7164C10.4895 66.6065 10.5573 66.4433 10.5573 66.2269C10.5573 66.0298 10.4879 65.8731 10.3489 65.7567C10.2132 65.6372 10.021 65.5774 9.77219 65.5774H9.02582V66.8763Z" fill="#F8F8F8"/>
<path d="M19.3861 67.1429H19.6478V68.4563C19.5315 68.5371 19.3716 68.6017 19.168 68.6501C18.9677 68.7018 18.7367 68.7277 18.475 68.7277C18.1292 68.7277 17.8368 68.6485 17.5977 68.4902C17.3619 68.3319 17.1841 68.1219 17.0646 67.8602C16.9483 67.5984 16.8901 67.3109 16.8901 66.9975C16.8901 66.6873 16.9515 66.4029 17.0743 66.1445C17.1971 65.8828 17.3829 65.6743 17.6316 65.5193C17.8804 65.3642 18.1842 65.2866 18.5428 65.2866C18.769 65.2866 18.9806 65.3286 19.1777 65.4126C19.3748 65.4934 19.5396 65.6097 19.6721 65.7616L19.4879 65.9264C19.3845 65.7971 19.2456 65.697 19.0711 65.6259C18.8998 65.5516 18.7237 65.5144 18.5428 65.5144C18.2488 65.5144 17.9984 65.579 17.7916 65.7083C17.5848 65.8375 17.4281 66.0152 17.3215 66.2414C17.2148 66.4643 17.1615 66.718 17.1615 67.0023C17.1615 67.2899 17.2116 67.5484 17.3118 67.7778C17.4152 68.0039 17.5654 68.1816 17.7625 68.3109C17.9596 68.4401 18.1971 68.5047 18.475 68.5047C18.8691 68.5047 19.1729 68.4514 19.3861 68.3448V67.1429Z" fill="#F8F8F8"/>
<path d="M27.1371 68.7325C26.8075 68.7325 26.5264 68.6566 26.2938 68.5047C26.0644 68.3497 25.8899 68.1413 25.7704 67.8795C25.654 67.6178 25.5959 67.3286 25.5959 67.012C25.5959 66.6954 25.654 66.4062 25.7704 66.1445C25.8899 65.8828 26.0644 65.6743 26.2938 65.5193C26.5264 65.3642 26.8075 65.2866 27.1371 65.2866C27.4634 65.2866 27.7429 65.3642 27.9755 65.5193C28.2082 65.6743 28.3827 65.8828 28.499 66.1445C28.6185 66.4029 28.6783 66.6889 28.6783 67.0023C28.6783 67.3222 28.6185 67.613 28.499 67.8747C28.3827 68.1364 28.2082 68.3448 27.9755 68.4999C27.7429 68.655 27.4634 68.7325 27.1371 68.7325ZM27.1371 68.5047C27.4053 68.5047 27.6347 68.4401 27.8253 68.3109C28.0159 68.1816 28.1597 68.0039 28.2566 67.7778C28.3568 67.5516 28.4069 67.2947 28.4069 67.0072C28.4069 66.7228 28.3568 66.4692 28.2566 66.2462C28.1597 66.0201 28.0159 65.8424 27.8253 65.7131C27.6347 65.5806 27.4053 65.5144 27.1371 65.5144C26.8689 65.5144 26.6395 65.5806 26.4489 65.7131C26.2582 65.8424 26.1128 66.0201 26.0127 66.2462C25.9157 66.4692 25.8673 66.7228 25.8673 67.0072C25.8673 67.2947 25.9157 67.5516 26.0127 67.7778C26.1128 68.0039 26.2582 68.1816 26.4489 68.3109C26.6395 68.4401 26.8689 68.5047 27.1371 68.5047Z" fill="#F8F8F8"/>
<path d="M37.2919 65.3545V68.6501L37.069 68.655L35.0674 65.8537V68.6501H34.7959V65.3545H35.0189L37.0205 68.1655V65.3545H37.2919Z" fill="#F8F8F8"/>
<path d="M54.1953 65.3545L53.1533 68.6938H52.9206L51.9513 65.8101L50.9771 68.6938H50.7445L49.7461 65.3545H50.0224L50.8657 68.2915L51.8495 65.3545H52.0531L53.0418 68.2915L53.9287 65.3545H54.1953Z" fill="#F8F8F8"/>
<path d="M62.1276 68.4272V68.6501H60.1938V65.3545H62.0306V65.5774H60.4652V66.7939H61.8368V67.0168H60.4652V68.4272H62.1276Z" fill="#F8F8F8"/>
<path d="M70.1802 68.4272V68.6501H68.2464V65.3545H68.5178V68.4272H70.1802Z" fill="#F8F8F8"/>
<path d="M77.2658 65.3545C77.5954 65.3545 77.8749 65.4256 78.1043 65.5677C78.3369 65.7099 78.5114 65.9054 78.6277 66.1542C78.7473 66.4029 78.8071 66.6841 78.8071 66.9975C78.8071 67.3206 78.7473 67.6065 78.6277 67.8553C78.5114 68.1041 78.3369 68.2996 78.1043 68.4417C77.8749 68.5807 77.5954 68.6501 77.2658 68.6501H76.1996V65.3545H77.2658ZM77.2658 68.4272C77.6697 68.4272 77.9815 68.2996 78.2012 68.0443C78.4242 67.7891 78.5357 67.4417 78.5357 67.0023C78.5357 66.5693 78.4242 66.2236 78.2012 65.9651C77.9815 65.7067 77.6697 65.5774 77.2658 65.5774H76.471V68.4272H77.2658Z" fill="#F8F8F8"/>
<path d="M84.9243 65.3545H85.1957V68.6501H84.9243V65.3545Z" fill="#F8F8F8"/>
<path d="M94.1003 65.3545V68.6501L93.8774 68.655L91.8757 65.8537V68.6501H91.6043V65.3545H91.8273L93.8289 68.1655V65.3545H94.1003Z" fill="#F8F8F8"/>
<path d="M102.714 67.1429H102.976V68.4563C102.859 68.5371 102.7 68.6017 102.496 68.6501C102.296 68.7018 102.065 68.7277 101.803 68.7277C101.457 68.7277 101.165 68.6485 100.926 68.4902C100.69 68.3319 100.512 68.1219 100.393 67.8602C100.276 67.5984 100.218 67.3109 100.218 66.9975C100.218 66.6873 100.279 66.4029 100.402 66.1445C100.525 65.8828 100.711 65.6743 100.96 65.5193C101.208 65.3642 101.512 65.2866 101.871 65.2866C102.097 65.2866 102.309 65.3286 102.506 65.4126C102.703 65.4934 102.868 65.6097 103 65.7616L102.816 65.9264C102.712 65.7971 102.574 65.697 102.399 65.6259C102.228 65.5516 102.052 65.5144 101.871 65.5144C101.577 65.5144 101.326 65.579 101.12 65.7083C100.913 65.8375 100.756 66.0152 100.649 66.2414C100.543 66.4643 100.489 66.718 100.489 67.0023C100.489 67.2899 100.54 67.5484 100.64 67.7778C100.743 68.0039 100.893 68.1816 101.09 68.3109C101.288 68.4401 101.525 68.5047 101.803 68.5047C102.197 68.5047 102.501 68.4514 102.714 68.3448V67.1429Z" fill="#F8F8F8"/>
</svg>
