<svg width="130" height="130" viewBox="0 0 130 130" fill="none" xmlns="http://www.w3.org/2000/svg">
<rect width="4" height="4" fill="#222222"/>
<rect y="14" width="4" height="4" fill="#222222"/>
<rect y="28" width="4" height="4" fill="#222222"/>
<rect y="42" width="4" height="4" fill="#222222"/>
<rect y="56" width="4" height="4" fill="#222222"/>
<rect x="14" width="4" height="4" fill="#222222"/>
<rect x="14" y="14" width="4" height="4" fill="#222222"/>
<rect x="14" y="28" width="4" height="4" fill="#222222"/>
<rect x="14" y="42" width="4" height="4" fill="#222222"/>
<rect x="14" y="56" width="4" height="4" fill="#222222"/>
<rect x="28" width="4" height="4" fill="#222222"/>
<rect x="28" y="14" width="4" height="4" fill="#222222"/>
<rect x="28" y="28" width="4" height="4" fill="#222222"/>
<rect x="28" y="42" width="4" height="4" fill="#222222"/>
<rect x="28" y="56" width="4" height="4" fill="#222222"/>
<rect x="42" width="4" height="4" fill="#222222"/>
<rect x="42" y="14" width="4" height="4" fill="#222222"/>
<rect x="42" y="28" width="4" height="4" fill="#222222"/>
<rect x="42" y="42" width="4" height="4" fill="#222222"/>
<rect x="42" y="56" width="4" height="4" fill="#222222"/>
<rect x="56" width="4" height="4" fill="#222222"/>
<rect x="56" y="14" width="4" height="4" fill="#222222"/>
<rect x="56" y="28" width="4" height="4" fill="#222222"/>
<rect x="56" y="42" width="4" height="4" fill="#222222"/>
<rect x="56" y="56" width="4" height="4" fill="#222222"/>
<rect x="70" width="4" height="4" fill="#222222"/>
<rect x="70" y="14" width="4" height="4" fill="#222222"/>
<rect x="70" y="28" width="4" height="4" fill="#222222"/>
<rect x="70" y="42" width="4" height="4" fill="#222222"/>
<rect x="70" y="56" width="4" height="4" fill="#222222"/>
<rect x="84" width="4" height="4" fill="#222222"/>
<rect x="84" y="14" width="4" height="4" fill="#222222"/>
<rect x="84" y="28" width="4" height="4" fill="#222222"/>
<rect x="84" y="42" width="4" height="4" fill="#222222"/>
<rect x="84" y="56" width="4" height="4" fill="#222222"/>
<rect x="98" width="4" height="4" fill="#222222"/>
<rect x="98" y="14" width="4" height="4" fill="#222222"/>
<rect x="98" y="28" width="4" height="4" fill="#222222"/>
<rect x="98" y="42" width="4" height="4" fill="#222222"/>
<rect x="98" y="56" width="4" height="4" fill="#222222"/>
<rect y="70" width="4" height="4" fill="#222222"/>
<rect y="84" width="4" height="4" fill="#222222"/>
<rect y="98" width="4" height="4" fill="#222222"/>
<rect y="112" width="4" height="4" fill="#222222"/>
<rect y="126" width="4" height="4" fill="#222222"/>
<rect x="14" y="70" width="4" height="4" fill="#222222"/>
<rect x="14" y="84" width="4" height="4" fill="#222222"/>
<rect x="14" y="98" width="4" height="4" fill="#222222"/>
<rect x="14" y="112" width="4" height="4" fill="#222222"/>
<rect x="14" y="126" width="4" height="4" fill="#222222"/>
<rect x="28" y="70" width="4" height="4" fill="#222222"/>
<rect x="28" y="84" width="4" height="4" fill="#222222"/>
<rect x="28" y="98" width="4" height="4" fill="#222222"/>
<rect x="28" y="112" width="4" height="4" fill="#222222"/>
<rect x="28" y="126" width="4" height="4" fill="#222222"/>
<rect x="42" y="70" width="4" height="4" fill="#222222"/>
<rect x="42" y="84" width="4" height="4" fill="#222222"/>
<rect x="42" y="98" width="4" height="4" fill="#222222"/>
<rect x="42" y="112" width="4" height="4" fill="#222222"/>
<rect x="42" y="126" width="4" height="4" fill="#222222"/>
<rect x="56" y="70" width="4" height="4" fill="#222222"/>
<rect x="56" y="84" width="4" height="4" fill="#222222"/>
<rect x="56" y="98" width="4" height="4" fill="#222222"/>
<rect x="56" y="112" width="4" height="4" fill="#222222"/>
<rect x="56" y="126" width="4" height="4" fill="#222222"/>
<rect x="70" y="70" width="4" height="4" fill="#222222"/>
<rect x="70" y="84" width="4" height="4" fill="#222222"/>
<rect x="70" y="98" width="4" height="4" fill="#222222"/>
<rect x="70" y="112" width="4" height="4" fill="#222222"/>
<rect x="70" y="126" width="4" height="4" fill="#222222"/>
<rect x="84" y="70" width="4" height="4" fill="#222222"/>
<rect x="84" y="84" width="4" height="4" fill="#222222"/>
<rect x="84" y="98" width="4" height="4" fill="#222222"/>
<rect x="84" y="112" width="4" height="4" fill="#222222"/>
<rect x="84" y="126" width="4" height="4" fill="#222222"/>
<rect x="98" y="70" width="4" height="4" fill="#222222"/>
<rect x="98" y="84" width="4" height="4" fill="#222222"/>
<rect x="98" y="98" width="4" height="4" fill="#222222"/>
<rect x="98" y="112" width="4" height="4" fill="#222222"/>
<rect x="98" y="126" width="4" height="4" fill="#222222"/>
<rect x="112" width="4" height="4" fill="#222222"/>
<rect x="112" y="14" width="4" height="4" fill="#222222"/>
<rect x="112" y="28" width="4" height="4" fill="#222222"/>
<rect x="112" y="42" width="4" height="4" fill="#222222"/>
<rect x="112" y="56" width="4" height="4" fill="#222222"/>
<rect x="126" width="4" height="4" fill="#222222"/>
<rect x="126" y="14" width="4" height="4" fill="#222222"/>
<rect x="126" y="28" width="4" height="4" fill="#222222"/>
<rect x="126" y="42" width="4" height="4" fill="#222222"/>
<rect x="126" y="56" width="4" height="4" fill="#222222"/>
<rect x="112" y="70" width="4" height="4" fill="#222222"/>
<rect x="112" y="84" width="4" height="4" fill="#222222"/>
<rect x="112" y="98" width="4" height="4" fill="#222222"/>
<rect x="112" y="112" width="4" height="4" fill="#222222"/>
<rect x="112" y="126" width="4" height="4" fill="#222222"/>
<rect x="126" y="70" width="4" height="4" fill="#222222"/>
<rect x="126" y="84" width="4" height="4" fill="#222222"/>
<rect x="126" y="98" width="4" height="4" fill="#222222"/>
<rect x="126" y="112" width="4" height="4" fill="#222222"/>
<rect x="126" y="126" width="4" height="4" fill="#222222"/>
</svg>
