<svg width="80" height="80" viewBox="0 0 80 80" fill="none" xmlns="http://www.w3.org/2000/svg">
<path d="M40 0C35.5817 0 32 3.58167 32 8C32 12.4183 35.5817 16 40 16C44.4165 15.9957 47.9957 12.4165 48 8C48 3.58167 44.4183 0 40 0ZM40 13.3333C37.0545 13.3333 34.6667 10.9455 34.6667 8C34.6667 5.0545 37.0545 2.66667 40 2.66667C42.9455 2.66667 45.3333 5.0545 45.3333 8C45.3333 10.9455 42.9455 13.3333 40 13.3333Z" fill="#F8F8F8"/>
<path d="M45.3333 17.3334H45.0187L44.7373 17.4734C41.7538 18.9589 38.2462 18.9589 35.2627 17.4734L34.9813 17.3334H34.6667C30.9867 17.3377 28.0043 20.32 28 24V32C28 34.2092 29.7908 36 32 36H48C50.2092 36 52 34.2092 52 32V24C51.9957 20.32 49.0133 17.3377 45.3333 17.3334ZM49.3333 32C49.3333 32.7364 48.7363 33.3334 48 33.3334H32C31.2637 33.3334 30.6667 32.7364 30.6667 32V24C30.667 21.9014 32.2892 20.1597 34.3827 20.0107C37.9452 21.664 42.055 21.664 45.6173 20.0107C47.7107 20.1597 49.333 21.9014 49.3333 24V32Z" fill="#F8F8F8"/>
<path d="M68 44C63.5817 44 60 47.5817 60 52C60 56.4183 63.5817 60 68 60C72.4183 60 76 56.4183 76 52C75.9957 47.5835 72.4165 44.0043 68 44ZM68 57.3333C65.0545 57.3333 62.6667 54.9455 62.6667 52C62.6667 49.0545 65.0545 46.6667 68 46.6667C70.9455 46.6667 73.3333 49.0545 73.3333 52C73.3333 54.9455 70.9455 57.3333 68 57.3333Z" fill="#F8F8F8"/>
<path d="M73.3333 61.3333H73.0187L72.7373 61.4666C69.7538 62.9519 66.2462 62.9519 63.2627 61.4666L62.9813 61.3333H62.6667C58.9867 61.3376 56.0043 64.3199 56 67.9999V75.9999C56 78.2091 57.7908 80 60 80H76C78.2092 80 80 78.2091 80 75.9999V67.9999C79.9957 64.3199 77.0133 61.3376 73.3333 61.3333ZM77.3333 75.9999C77.3333 76.7363 76.7363 77.3333 76 77.3333H60C59.2637 77.3333 58.6667 76.7363 58.6667 75.9999V67.9999C58.667 65.9013 60.2892 64.1596 62.3827 64.0106C65.9452 65.6639 70.0548 65.6639 73.6173 64.0106C75.7108 64.1596 77.333 65.9013 77.3333 67.9999V75.9999Z" fill="#F8F8F8"/>
<path d="M12 44C7.58167 44 4 47.5817 4 52C4 56.4183 7.58167 60 12 60C16.4183 60 20 56.4183 20 52C19.9957 47.5835 16.4165 44.0043 12 44ZM12 57.3333C9.0545 57.3333 6.66667 54.9455 6.66667 52C6.66667 49.0545 9.0545 46.6667 12 46.6667C14.9455 46.6667 17.3333 49.0545 17.3333 52C17.3333 54.9455 14.9455 57.3333 12 57.3333Z" fill="#F8F8F8"/>
<path d="M17.3333 61.3333H17.0187L16.7373 61.4666C13.7538 62.9519 10.2462 62.9519 7.26267 61.4666L6.98133 61.3333H6.66667C2.98667 61.3376 0.00433333 64.3199 0 67.9999V75.9999C0 78.2091 1.79083 80 4 80H20C22.2092 80 24 78.2091 24 75.9999V67.9999C23.9957 64.3199 21.0133 61.3376 17.3333 61.3333ZM21.3333 75.9999C21.3333 76.7363 20.7363 77.3333 20 77.3333H4C3.26367 77.3333 2.66667 76.7363 2.66667 75.9999V67.9999C2.667 65.9013 4.28917 64.1596 6.38267 64.0106C9.94517 65.6639 14.0548 65.6639 17.6173 64.0106C19.7108 64.1596 21.333 65.9013 21.3333 67.9999V75.9999Z" fill="#F8F8F8"/>
<path d="M53.2284 67.7126C53.2278 67.7111 53.2271 67.7096 53.2264 67.7079C52.9377 67.0304 52.1546 66.7153 51.4772 67.0039C45.4564 69.5273 38.7698 69.9876 32.4599 68.3133L33.7079 67.9466C34.4149 67.7396 34.8202 66.9989 34.6132 66.2919C34.4062 65.5849 33.6656 65.1796 32.9586 65.3866L27.6253 66.9506C27.6053 66.9506 27.5906 66.9733 27.5719 66.9799C27.4484 67.0259 27.3324 67.0903 27.2279 67.1706C27.1816 67.1956 27.1371 67.2236 27.0946 67.2546C26.9539 67.3801 26.8424 67.5348 26.7679 67.7079C26.6956 67.8823 26.6611 68.0699 26.6666 68.2586C26.6991 68.4391 26.7436 68.6173 26.7999 68.7919C26.8079 68.8106 26.7999 68.8319 26.8146 68.8506L29.4813 73.9533C29.8223 74.6064 30.6281 74.8596 31.2812 74.5186C31.9344 74.1776 32.1876 73.3718 31.8466 72.7186L30.7612 70.6439C37.9303 72.7989 45.6271 72.3801 52.5199 69.4599C53.1979 69.1731 53.5153 68.3908 53.2284 67.7126Z" fill="#F8F8F8"/>
<path d="M75.6091 35.0574C75.0884 34.5369 74.2444 34.5369 73.7238 35.0574L71.8371 36.9441C70.7331 25.2657 63.3186 15.1314 52.5224 10.5441C51.8449 10.2554 51.0617 10.5706 50.7731 11.2481C50.4844 11.9256 50.7996 12.7087 51.4771 12.9974C61.1621 17.1136 67.8944 26.1089 69.1131 36.5614L67.6091 35.0574C67.0794 34.5457 66.2354 34.5604 65.7238 35.0901C65.2248 35.6067 65.2248 36.4259 65.7238 36.9427L69.7238 40.9427C70.2438 41.4641 71.0881 41.4652 71.6094 40.9451C71.6103 40.9442 71.6111 40.9434 71.6118 40.9427L75.6118 36.9427C76.1316 36.4214 76.1304 35.5774 75.6091 35.0574Z" fill="#F8F8F8"/>
<path d="M29.2947 11.5454C29.2904 11.4675 29.2789 11.3904 29.26 11.3147C29.26 11.3027 29.2454 11.2947 29.24 11.2814C29.2347 11.268 29.24 11.2587 29.24 11.248C29.2037 11.1832 29.1617 11.1215 29.1147 11.064C29.0715 10.9859 29.0205 10.9122 28.9627 10.844C28.8839 10.7742 28.7965 10.7147 28.7027 10.6667C28.6559 10.6269 28.6059 10.5907 28.5534 10.5587L23.22 8.12271C22.5389 7.84305 21.7599 8.16855 21.4802 8.84971C21.2157 9.49388 21.4915 10.2332 22.1134 10.5467L24.8747 11.8094C14.4792 17.3729 7.99251 28.2094 8.00001 40.0001C8.00001 40.7364 8.59701 41.3334 9.33334 41.3334C10.0697 41.3334 10.6667 40.7364 10.6667 40.0001C10.66 29.6179 16.1502 20.008 25.0974 14.7414L24.1334 16.756C23.8155 17.4189 24.094 18.2139 24.756 18.5334C24.9359 18.6212 25.1332 18.6669 25.3334 18.6667C25.8454 18.666 26.3117 18.3722 26.5334 17.9107L29.2 12.3467C29.2 12.3334 29.2 12.3187 29.2107 12.3054C29.2454 12.2142 29.2695 12.1194 29.2827 12.0227C29.3055 11.9509 29.3225 11.8774 29.3334 11.8027C29.3289 11.7159 29.316 11.6297 29.2947 11.5454Z" fill="#F8F8F8"/>
</svg>
