<svg width="24" height="24" viewBox="0 0 24 24" fill="#f8f8f8" xmlns="http://www.w3.org/2000/svg">
<path d="M8.42086 4.64804C8.42086 5.25285 8.42086 7.95237 8.42086 7.95237H6V11.9929H8.42086V24H13.3938V11.9932H16.7309C16.7309 11.9932 17.0434 10.0558 17.1949 7.93747C16.7606 7.93747 13.4126 7.93747 13.4126 7.93747C13.4126 7.93747 13.4126 5.58681 13.4126 5.17478C13.4126 4.76187 13.9548 4.20644 14.4907 4.20644C15.0256 4.20644 16.1545 4.20644 17.2002 4.20644C17.2002 3.65631 17.2002 1.75551 17.2002 1.44334e-08C15.8043 1.44334e-08 14.2162 1.44334e-08 13.5162 1.44334e-08C8.29793 -0.000278983 8.42086 4.04429 8.42086 4.64804Z"/>
</svg>
