<svg width="80" height="80" viewBox="0 0 80 80" fill="none" xmlns="http://www.w3.org/2000/svg">
<path d="M73.0531 13.8142C62.0352 10.7983 50.9524 6.10221 41.003 0.233789C40.4745 -0.0779295 39.8187 -0.0779295 39.2904 0.233789C29.054 6.27081 18.5701 10.7128 7.23936 13.8142C6.50738 14.0144 6 14.6791 6 15.4373V32.632C6 50.3387 14.1767 62.0593 21.0363 68.7735C28.4212 76.0024 37.0235 80 40.1467 80C43.2697 80 51.8719 76.0024 59.2568 68.7735C66.1162 62.0594 74.2925 50.3388 74.2925 32.632V15.4372C74.2925 14.6791 73.7851 14.0144 73.0531 13.8142ZM70.9235 32.6318C70.9235 49.1698 63.297 60.1065 56.8988 66.3693C49.6368 73.4778 41.8723 76.6341 40.1467 76.6341C38.4211 76.6341 30.6562 73.4778 23.394 66.3693C16.9959 60.1063 9.36913 49.1698 9.36913 32.6318V16.7147C20.2046 13.6413 30.2955 9.35205 40.147 3.63284C49.7525 9.20033 60.3469 13.7028 70.9235 16.7141V32.6318Z" fill="#FAFAFA"/>
<path d="M51.9979 29.4567L34.9707 46.4647L28.0002 39.5004L26 41.5023L34.9707 50.4637L54 31.4554L51.9979 29.4567Z" fill="#FAFAFA"/>
</svg>
