<svg width="24" height="24" viewBox="0 0 24 24" fill="none" xmlns="http://www.w3.org/2000/svg">
<path d="M17.3766 0H6.62295C2.97106 0 0 2.9712 0 6.62309V17.3768C0 21.0288 2.97106 23.9999 6.62295 23.9999H17.3766C21.0288 23.9999 23.9999 21.0287 23.9999 17.3768V6.62309C24 2.9712 21.0288 0 17.3766 0ZM21.8706 17.3768C21.8706 19.8547 19.8547 21.8705 17.3768 21.8705H6.62295C4.1452 21.8706 2.12938 19.8547 2.12938 17.3768V6.62309C2.12938 4.14534 4.1452 2.12938 6.62295 2.12938H17.3766C19.8545 2.12938 21.8705 4.14534 21.8705 6.62309V17.3768H21.8706Z" fill="#F8F8F8"/>
<path d="M11.9996 5.81604C8.58959 5.81604 5.81543 8.5902 5.81543 12.0002C5.81543 15.41 8.58959 18.1841 11.9996 18.1841C15.4096 18.1841 18.1837 15.41 18.1837 12.0002C18.1837 8.5902 15.4096 5.81604 11.9996 5.81604ZM11.9996 16.0545C9.76387 16.0545 7.94481 14.2358 7.94481 12.0001C7.94481 9.7642 9.76373 7.94528 11.9996 7.94528C14.2354 7.94528 16.0544 9.7642 16.0544 12.0001C16.0544 14.2358 14.2353 16.0545 11.9996 16.0545Z" fill="#F8F8F8"/>
<path d="M18.4434 4.0105C18.0331 4.0105 17.6301 4.17659 17.3404 4.46761C17.0492 4.7572 16.8818 5.16037 16.8818 5.57205C16.8818 5.98245 17.0493 6.38547 17.3404 6.67649C17.63 6.96608 18.0331 7.13359 18.4434 7.13359C18.8551 7.13359 19.2568 6.96608 19.5478 6.67649C19.8388 6.38547 20.0049 5.98231 20.0049 5.57205C20.0049 5.16037 19.8388 4.7572 19.5478 4.46761C19.2582 4.17659 18.8551 4.0105 18.4434 4.0105Z" fill="#F8F8F8"/>
</svg>
