<svg width="80" height="80" viewBox="0 0 80 80" fill="none" xmlns="http://www.w3.org/2000/svg">
<path d="M54 0C53.1372 0 52.4375 0.699688 52.4375 1.5625V8.75C52.4375 9.61281 53.1372 10.3125 54 10.3125C54.8628 10.3125 55.5625 9.61281 55.5625 8.75V1.5625C55.5625 0.699688 54.8628 0 54 0Z" fill="#F8F8F8"/>
<path d="M18.0625 48.75C17.2 48.75 16.5 49.45 16.5 50.3125C16.5 51.175 17.2 51.875 18.0625 51.875C18.925 51.875 19.625 51.175 19.625 50.3125C19.625 49.45 18.925 48.75 18.0625 48.75Z" fill="#F8F8F8"/>
<path d="M75.875 45.625C75.875 42.1788 73.0712 39.375 69.625 39.375H57.9606C59.7664 34.7495 60.4973 29.3052 60.3564 24.4587C60.3295 23.5339 60.2941 22.9991 60.2461 22.6623C60.1653 19.2863 57.3931 16.5625 54 16.5625C50.5538 16.5625 47.75 19.3663 47.75 22.8125V24.375C47.75 34.2572 35.0603 39.8095 25.4838 42.1905C24.7597 40.5352 23.1069 39.375 21.1875 39.375H5.5625C4.69969 39.375 4 40.0747 4 40.9375V78.4375C4 79.3003 4.69969 80 5.5625 80H21.1875C23.0941 80 24.7373 78.8552 25.4689 77.2173C26.2619 77.4208 26.998 77.613 27.6775 77.7905C33.133 79.2153 36.1381 80 43.4469 80H60.25C63.6962 80 66.5 77.1962 66.5 73.75C66.5 72.465 66.1098 71.2697 65.4422 70.2753C67.8559 69.4311 69.625 67.1248 69.625 64.375C69.625 63.0947 69.2444 61.8955 68.5787 60.8966C70.9819 60.0509 72.75 57.75 72.75 55C72.75 53.715 72.3598 52.5197 71.6922 51.5253C74.1059 50.6811 75.875 48.3748 75.875 45.625ZM22.75 75.3125C22.75 76.1741 22.0491 76.875 21.1875 76.875H7.125V42.5H21.1875C22.0491 42.5 22.75 43.2009 22.75 44.0625V75.3125ZM69.625 48.75C66.2736 48.75 65.4747 48.75 61.8125 48.75C60.9497 48.75 60.25 49.4497 60.25 50.3125C60.25 51.1753 60.9497 51.875 61.8125 51.875H66.5C68.2231 51.875 69.625 53.2769 69.625 55C69.625 56.7259 68.2259 58.125 66.5 58.125H58.6875C57.8247 58.125 57.125 58.8247 57.125 59.6875C57.125 60.5503 57.8247 61.25 58.6875 61.25H63.375C65.0777 61.25 66.5 62.6102 66.5 64.375C66.5 66.1009 65.1009 67.5 63.375 67.5C60.0236 67.5 59.2247 67.5 55.5625 67.5C54.6997 67.5 54 68.1997 54 69.0625C54 69.9253 54.6997 70.625 55.5625 70.625H60.25C61.9731 70.625 63.375 72.0269 63.375 73.75C63.375 75.4731 61.9731 76.875 60.25 76.875H43.4469C36.5395 76.875 33.8417 76.1705 28.4672 74.7669C27.6798 74.5612 26.8163 74.3358 25.875 74.0958V45.3164C37.1825 42.623 50.875 36.0486 50.875 24.375V22.8125C50.875 21.0894 52.2769 19.6875 54 19.6875C55.72 19.6875 57.1217 21.0872 57.125 22.8077V22.8125C57.125 23.4916 57.9725 31.8255 54.5741 39.375H49.3125C48.4497 39.375 47.75 40.0747 47.75 40.9375C47.75 41.8003 48.4497 42.5 49.3125 42.5C50.4036 42.5 67.8441 42.5 69.625 42.5C71.3481 42.5 72.75 43.9019 72.75 45.625C72.75 47.3509 71.3509 48.75 69.625 48.75Z" fill="#F8F8F8"/>
<path d="M18.0625 55C17.1997 55 16.5 55.6997 16.5 56.5625V69.0625C16.5 69.9253 17.1997 70.625 18.0625 70.625C18.9253 70.625 19.625 69.9253 19.625 69.0625V56.5625C19.625 55.6997 18.9253 55 18.0625 55Z" fill="#F8F8F8"/>
<path d="M41.5 19.6875H35.25C34.3872 19.6875 33.6875 20.3872 33.6875 21.25C33.6875 22.1128 34.3872 22.8125 35.25 22.8125H41.5C42.3628 22.8125 43.0625 22.1128 43.0625 21.25C43.0625 20.3872 42.3628 19.6875 41.5 19.6875Z" fill="#F8F8F8"/>
<path d="M72.75 19.6875H66.5C65.6372 19.6875 64.9375 20.3872 64.9375 21.25C64.9375 22.1128 65.6372 22.8125 66.5 22.8125H72.75C73.6128 22.8125 74.3125 22.1128 74.3125 21.25C74.3125 20.3872 73.6128 19.6875 72.75 19.6875Z" fill="#F8F8F8"/>
<path d="M68.3624 6.88731C67.7521 6.27731 66.7631 6.27731 66.1526 6.88731L61.734 11.3059C61.1238 11.9161 61.1238 12.9054 61.734 13.5157C62.3445 14.1259 63.3334 14.1257 63.9438 13.5157L68.3624 9.09715C68.9726 8.487 68.9726 7.49762 68.3624 6.88731Z" fill="#F8F8F8"/>
<path d="M46.2657 11.3059L41.8471 6.88731C41.2368 6.27731 40.2478 6.27731 39.6373 6.88731C39.0271 7.49747 39.0271 8.48684 39.6373 9.09715L44.0559 13.5157C44.6665 14.1259 45.6554 14.1257 46.2657 13.5157C46.8759 12.9056 46.8759 11.9162 46.2657 11.3059Z" fill="#F8F8F8"/>
</svg>
