<svg width="80" height="80" viewBox="0 0 80 80" fill="none" xmlns="http://www.w3.org/2000/svg">
<path d="M51.4391 55.0923V53.7007C51.8327 53.3831 52.2112 53.0352 52.5746 52.6722C55.4842 49.4717 57.3162 45.4408 57.8134 41.1461C60.4283 40.7481 62.7852 39.3482 64.3846 37.2436C66.5801 34.1428 66.7769 29.6806 64.9449 24.084C64.8372 23.7612 64.6239 23.4841 64.3392 23.2974L63.5065 22.7378C63.6293 17.6879 61.8824 12.7705 58.6008 8.92772C54.5278 4.34453 48.2746 2.03025 39.9924 2C31.7254 2 25.457 4.34453 21.3841 8.86721C18.1025 12.71 16.3556 17.6274 16.4784 22.6773L15.6456 23.2369C15.361 23.4235 15.1477 23.7007 15.04 24.0235C13.2079 29.6504 13.4048 34.0823 15.6002 37.1831C17.1936 39.3025 19.5505 40.7184 22.1714 41.131C22.6707 45.4325 24.5085 49.469 27.4254 52.6722C27.7859 53.0344 28.1648 53.3778 28.561 53.7007V55.0923C22.7619 56.2117 -0.388706 61.6419 0.00496082 77.0704C0.00496082 77.9058 0.682901 78.583 1.51906 78.583H78.4809C79.3171 78.583 79.995 77.9058 79.995 77.0704C80.3887 61.6419 57.2381 56.2117 51.4391 55.0923ZM21.263 37.7579C19.9764 37.3262 18.855 36.5074 18.0531 35.4134L18.1288 35.4285C16.6147 33.2201 16.4784 29.8773 17.826 25.4605L18.9313 24.7193C19.3963 24.4092 19.6523 23.8684 19.5975 23.3126C19.3427 18.7918 20.8146 14.3426 23.7158 10.8638C27.1377 6.99159 32.6339 5.05546 39.9924 5.0252C47.351 4.99495 52.8472 6.99159 56.3296 10.8638C59.2308 14.3426 60.7027 18.7918 60.448 23.3126C60.3931 23.8684 60.6492 24.4092 61.1142 24.7193L62.2195 25.4605C63.567 29.8621 63.4762 33.2201 61.9166 35.4285C61.1092 36.5234 59.9829 37.3423 58.6916 37.773C60.518 35.697 61.4104 32.9626 61.1596 30.21C60.8759 28.5539 60.0117 27.0528 58.7219 25.9747C58.0708 10.8487 47.457 9.15461 42.8844 9.15461C41.9165 9.15177 40.9497 9.22267 39.9924 9.36637C39.0353 9.22248 38.0684 9.15177 37.1005 9.15461C32.5582 9.15461 21.9595 10.8185 21.263 25.9747C19.9648 27.0441 19.09 28.5401 18.795 30.1949C18.5425 32.9476 19.4351 35.6828 21.263 37.7579ZM55.7088 25.3546C49.3555 25.7214 43.0418 24.1379 37.6153 20.8168C37.0011 20.3859 36.1636 20.4696 35.647 21.0134C32.6187 24.2655 27.0923 25.0218 24.4274 25.1882C25.2451 14.4941 31.7254 12.1647 37.1762 12.1647C38.0438 12.1584 38.9102 12.2293 39.7653 12.3764C39.9652 12.4173 40.1711 12.4173 40.371 12.3764C41.226 12.2297 42.0925 12.1588 42.9601 12.1647C48.3654 12.1647 54.8761 14.5546 55.6331 25.3394L55.7088 25.3546ZM24.9574 38.0453L25.0179 38.0604C25.0212 37.6876 24.8864 37.3266 24.6394 37.047C22.5651 34.6722 21.6112 32.5092 21.8686 30.7243C21.992 29.7302 22.4835 28.8182 23.2464 28.168C25.2451 28.168 32.3311 27.7899 36.8734 23.8722C41.989 26.8103 47.7793 28.3737 53.6799 28.41C54.6944 28.41 55.724 28.41 56.799 28.2436C57.5411 28.8767 58.0258 29.7589 58.1617 30.7243C58.4191 32.4789 57.4652 34.6722 55.3909 37.047C55.1439 37.3266 55.0091 37.6876 55.0123 38.0604C55.0123 38.0604 55.0123 38.3629 55.0123 38.847L46.2003 43.5663C44.4515 41.9123 41.6914 41.9877 40.0358 43.7348C38.3801 45.4818 38.4556 48.2391 40.2044 49.8931C41.9532 51.5472 44.7132 51.4717 46.3689 49.7247C47.1362 48.915 47.5635 47.8424 47.5629 46.7276C47.5698 46.5915 47.5698 46.4554 47.5629 46.3192L54.5127 42.5982C53.9161 45.5809 52.5127 48.3431 50.4549 50.5848C47.7708 53.1664 44.1375 54.5242 40.4164 54.336H39.6593C35.9462 54.5202 32.3208 53.1691 29.636 50.5999C24.8514 45.8352 24.9574 38.1209 24.9574 38.0453ZM44.5347 46.7276C44.5347 47.4711 43.9314 48.0739 43.1872 48.0739C42.443 48.0739 41.8396 47.4711 41.8396 46.7276C41.8396 45.9842 42.443 45.3814 43.1872 45.3814C43.9314 45.3814 44.5347 45.9842 44.5347 46.7276ZM38.4783 75.4671H3.07859C4.27473 64.1074 22.7619 59.3579 28.5458 58.1327V60.8402C28.5458 64.2738 32.7247 66.8906 38.4783 67.3293V75.4671V75.4671ZM31.574 60.8402V60.7948V55.6217C34.0908 56.7878 36.8401 57.3671 39.6139 57.3158H40.371C43.1448 57.3671 45.894 56.7878 48.4108 55.6217V60.8402C48.4108 62.2772 45.1252 64.3495 39.9924 64.3495C34.8596 64.3495 31.574 62.2772 31.574 60.8402ZM41.5065 75.5125V67.3141C47.2601 66.9209 51.4391 64.2889 51.4391 60.8251V58.178C57.2683 59.3881 75.6647 64.1377 76.9063 75.5125H41.5065Z" fill="#F8F8F8"/>
</svg>
