<svg width="80" height="80" viewBox="0 0 80 80" fill="none" xmlns="http://www.w3.org/2000/svg">
<path d="M40 0C17.9087 0 0 17.8909 0 39.9604C0 62.0298 17.9087 79.9208 40 79.9208C62.0913 79.9208 80 62.0298 80 39.9604C79.975 17.9013 62.081 0.0249752 40 0ZM40 77.2567C19.3813 77.2567 2.66667 60.5586 2.66667 39.9604C2.66667 19.3621 19.3813 2.66403 40 2.66403C60.6187 2.66403 77.3333 19.3621 77.3333 39.9604C77.3098 60.5488 60.6088 77.2333 40 77.2567Z" fill="#F8F8F8"/>
<path d="M39.9996 5.328C20.8538 5.328 5.33301 20.8335 5.33301 39.9603C5.33301 59.0872 20.8538 74.5926 39.9996 74.5926C59.1454 74.5926 74.6663 59.0872 74.6663 39.9603C74.6449 20.8423 59.1366 5.34932 39.9996 5.328ZM39.9996 71.9286C22.3265 71.9286 7.99967 57.616 7.99967 39.9603C7.99967 22.3047 22.3265 7.99203 39.9996 7.99203C57.6728 7.99203 71.9996 22.3047 71.9996 39.9603C71.9791 57.6073 57.6641 71.9081 39.9996 71.9286Z" fill="#F8F8F8"/>
<path d="M14.6663 38.6283H9.33301V41.2924H14.6663V38.6283Z" fill="#F8F8F8"/>
<path d="M70.6663 38.6283H65.333V41.2924H70.6663V38.6283Z" fill="#F8F8F8"/>
<path d="M17.3926 51.464L12.7734 54.1274L14.1065 56.4347L18.7257 53.7713L17.3926 51.464Z" fill="#F8F8F8"/>
<path d="M65.8926 23.4888L61.2734 26.1523L62.6065 28.4597L67.2257 25.7962L65.8926 23.4888Z" fill="#F8F8F8"/>
<path d="M14.1075 23.4882L12.7744 25.7955L17.3936 28.459L18.7267 26.1517L14.1075 23.4882Z" fill="#F8F8F8"/>
<path d="M62.6075 51.4547L61.2744 53.762L65.8935 56.4254L67.2266 54.1181L62.6075 51.4547Z" fill="#F8F8F8"/>
<path d="M25.8164 12.7626L23.5068 14.0944L26.173 18.709L28.4825 17.3773L25.8164 12.7626Z" fill="#F8F8F8"/>
<path d="M41.3337 9.3241H38.667V14.6521H41.3337V9.3241Z" fill="#F8F8F8"/>
<path d="M54.1769 12.7607L51.5107 17.3752L53.8203 18.707L56.4865 14.0924L54.1769 12.7607Z" fill="#F8F8F8"/>
<path d="M10.7224 30.7435L10.0322 33.3167L13.8959 34.3508L14.5861 31.7777L10.7224 30.7435Z" fill="#F8F8F8"/>
<path d="M66.0944 45.5662L65.4043 48.1394L69.268 49.1736L69.9581 46.6004L66.0944 45.5662Z" fill="#F8F8F8"/>
<path d="M19.2586 17.3552L17.373 19.2389L20.2014 22.0644L22.087 20.1807L19.2586 17.3552Z" fill="#F8F8F8"/>
<path d="M33.3441 10.0249L30.7686 10.715L31.8028 14.575L34.3784 13.8849L33.3441 10.0249Z" fill="#F8F8F8"/>
<path d="M46.6465 10.0316L45.6113 13.8914L48.1871 14.5808L49.2223 10.7211L46.6465 10.0316Z" fill="#F8F8F8"/>
<path d="M60.7416 17.3592L57.9131 20.1847L59.7987 22.0684L62.6272 19.2428L60.7416 17.3592Z" fill="#F8F8F8"/>
<path d="M69.2835 30.7436L65.4199 31.7778L66.1101 34.3511L69.9736 33.3169L69.2835 30.7436Z" fill="#F8F8F8"/>
<path d="M13.8958 45.5685L10.0322 46.6027L10.7224 49.1758L14.5859 48.1416L13.8958 45.5685Z" fill="#F8F8F8"/>
<path d="M45.6567 18.0435C33.5338 14.9241 21.1751 22.2129 18.0525 34.3235C16.5731 40.0612 17.4036 46.1496 20.3661 51.2826C20.7535 51.9081 21.5753 52.1016 22.2015 51.7145C22.8011 51.3438 23.0083 50.5708 22.6741 49.9505C17.1578 40.3904 20.4438 28.173 30.0135 22.6621C39.5832 17.1512 51.8127 20.4339 57.329 29.9941C59.9425 34.5235 60.6748 39.8957 59.369 44.9582C59.1848 45.671 59.6142 46.3979 60.3277 46.5819C61.0412 46.7659 61.7688 46.337 61.953 45.6242V45.6202C65.0755 33.5095 57.7793 21.1631 45.6567 18.0435Z" fill="#F8F8F8"/>
<path d="M59.511 49.5855L44.8442 37.5974C44.8042 37.5729 44.7628 37.5506 44.7203 37.5308C43.3817 34.9186 40.1771 33.885 37.5624 35.2221C34.9476 36.5593 33.9129 39.7608 35.2514 42.3728C36.1112 44.0508 37.7966 45.1481 39.6802 45.2565L58.2136 51.8699C58.359 51.9225 58.5125 51.9491 58.667 51.9485C59.4033 51.9483 60.0001 51.3519 60.0001 50.6161C60 50.2167 59.8205 49.8384 59.511 49.5855ZM40.0002 42.6244C38.5274 42.6244 37.3336 41.4318 37.3336 39.9604C37.3336 38.489 38.5274 37.2964 40.0002 37.2964C41.4731 37.2964 42.6669 38.489 42.6669 39.9604C42.6669 41.4318 41.4731 42.6244 40.0002 42.6244ZM43.6336 43.8392C44.3707 43.1494 44.8954 42.2634 45.1456 41.2858L51.8669 46.7723L43.6336 43.8392Z" fill="#F8F8F8"/>
<path d="M45.3333 53.2808H34.6667C30.9848 53.2808 28 56.2626 28 59.9407C28 63.6189 30.9848 66.6007 34.6667 66.6007H45.3333C49.0152 66.6007 52 63.6189 52 59.9407C52 56.2626 49.0152 53.2808 45.3333 53.2808ZM45.3333 63.9367H34.6667C32.4575 63.9367 30.6667 62.1477 30.6667 59.9407C30.6667 57.7338 32.4575 55.9448 34.6667 55.9448H45.3333C47.5425 55.9448 49.3333 57.7338 49.3333 59.9407C49.3333 62.1477 47.5425 63.9367 45.3333 63.9367Z" fill="#F8F8F8"/>
<path d="M37.333 58.6088H34.6664C33.93 58.6088 33.333 59.2052 33.333 59.9407C33.333 60.6763 33.93 61.2727 34.6664 61.2727H37.333C38.0694 61.2727 38.6664 60.6763 38.6664 59.9407C38.6664 59.2052 38.0694 58.6088 37.333 58.6088Z" fill="#F8F8F8"/>
<path d="M45.333 58.6088H42.6664C41.93 58.6088 41.333 59.2052 41.333 59.9407C41.333 60.6763 41.93 61.2727 42.6664 61.2727H45.333C46.0694 61.2727 46.6664 60.6763 46.6664 59.9407C46.6664 59.2052 46.0694 58.6088 45.333 58.6088Z" fill="#F8F8F8"/>
</svg>
