<svg width="24" height="24" viewBox="0 0 24 24" fill="#f8f8f8" xmlns="http://www.w3.org/2000/svg">
<path d="M0.423911 11.5717L5.95399 13.6357L8.09447 20.5194C8.23143 20.9603 8.77055 21.1233 9.12839 20.8307L12.211 18.3178C12.5341 18.0545 12.9943 18.0414 13.332 18.2865L18.8918 22.323C19.2746 22.6013 19.817 22.3915 19.913 21.929L23.9858 2.33768C24.0906 1.8324 23.5942 1.41088 23.113 1.59696L0.417431 10.3522C-0.142649 10.5682 -0.137769 11.3612 0.423911 11.5717ZM7.74951 12.537L18.5574 5.8804C18.7516 5.76112 18.9514 6.02376 18.7846 6.17848L9.86503 14.4697C9.55151 14.7615 9.34927 15.1521 9.29199 15.576L8.98815 17.8277C8.94791 18.1283 8.52559 18.1582 8.44263 17.8672L7.27407 13.7612C7.14023 13.2929 7.33527 12.7926 7.74951 12.537Z"/>
</svg>
